<svg width="44" height="44" viewBox="0 0 44 44" fill="none" xmlns="http://www.w3.org/2000/svg">
<path id="Vector" d="M42 6.44444L37.5556 22H11.726M39.7778 30.8889H13.1111L8.66667 2H2M30.8889 7.55556H25.3333M25.3333 7.55556H19.7778M25.3333 7.55556V13.1111M25.3333 7.55556V2M15.3333 39.7778C15.3333 41.0051 14.3384 42 13.1111 42C11.8838 42 10.8889 41.0051 10.8889 39.7778C10.8889 38.5504 11.8838 37.5556 13.1111 37.5556C14.3384 37.5556 15.3333 38.5504 15.3333 39.7778ZM39.7778 39.7778C39.7778 41.0051 38.7829 42 37.5556 42C36.3282 42 35.3333 41.0051 35.3333 39.7778C35.3333 38.5504 36.3282 37.5556 37.5556 37.5556C38.7829 37.5556 39.7778 38.5504 39.7778 39.7778Z" stroke="white" stroke-width="4" stroke-linecap="round" stroke-linejoin="round"/>
</svg>
