<svg width="44" height="52" viewBox="0 0 44 52" fill="none" xmlns="http://www.w3.org/2000/svg">
<g id="Login">
<g id="Group">
<g id="_x36__30_">
<g id="Group_2">
<path id="Vector" d="M23.8466 35.8932C23.309 36.5287 23.309 37.5572 23.8466 38.191C24.3843 38.8264 25.2546 38.8264 25.7909 38.191L35.277 26.9785C35.5631 26.6405 35.6854 26.1904 35.6661 25.7483C35.6854 25.3047 35.563 24.8562 35.277 24.5182L25.7909 13.3074C25.2546 12.672 24.3829 12.672 23.8466 13.3074C23.309 13.9428 23.309 14.9714 23.8466 15.6051L31.0557 24.1249H1.375C0.616 24.125 0 24.853 0 25.75C0 26.647 0.616 27.375 1.375 27.375H31.0557L23.8466 35.8932ZM38.5 3H11C7.96263 3 5.5 5.91039 5.5 9.5V16H8.25V9.5C8.25 7.706 9.48063 6.25 11 6.25H38.5C40.0194 6.25 41.25 7.706 41.25 9.5V42C41.25 43.794 40.0194 45.25 38.5 45.25H11C9.48063 45.25 8.25 43.7956 8.25 42V35.5H5.5V42C5.5 45.5896 7.96263 48.5 11 48.5H38.5C41.5374 48.5 44 45.5896 44 42V9.5C44 5.91039 41.5374 3 38.5 3Z" fill="white"/>
</g>
</g>
</g>
</g>
</svg>
