<svg width="47" height="39" viewBox="0 0 47 39" fill="none" xmlns="http://www.w3.org/2000/svg">
<g id="Layer_1" clip-path="url(#clip0_29_34)">
<g id="SVGRepo_iconCarrier">
<g id="Group">
<g id="Group_2">
<path id="Vector" d="M45.4791 5.86218H1.52089C0.682234 5.86218 0 6.42829 0 7.1242V31.8758C0 32.5717 0.682234 33.1378 1.52089 33.1378H45.4791C46.3178 33.1378 47 32.5717 47 31.8758V7.1242C47 6.42829 46.3178 5.86218 45.4791 5.86218ZM45.5282 26.7056H43.1242C42.7178 26.7056 42.3882 26.979 42.3882 27.3163C42.3882 27.6536 42.7177 27.927 43.1242 27.927H45.5282V29.3111H33.7047C33.2983 29.3111 32.9688 29.5845 32.9688 29.9218C32.9688 30.259 33.2982 30.5324 33.7047 30.5324H45.5282V31.8759C45.5282 31.8983 45.5063 31.9165 45.4792 31.9165H1.52089C1.49381 31.9165 1.47187 31.8983 1.47187 31.8759V30.5324H30.5647C30.9711 30.5324 31.3006 30.259 31.3006 29.9218C31.3006 29.5845 30.9712 29.3111 30.5647 29.3111H1.47178V27.9269H39.9845C40.3909 27.9269 40.7205 27.6535 40.7205 27.3162C40.7205 26.9789 40.391 26.7056 39.9845 26.7056H1.47178V25.3194C1.48821 25.3198 1.50428 25.3214 1.5208 25.3214H45.479C45.4956 25.3214 45.5117 25.3198 45.528 25.3194V26.7056H45.5282ZM45.5282 24.0595C45.5282 24.082 45.5063 24.1002 45.4792 24.1002H1.52089C1.49381 24.1002 1.47187 24.082 1.47187 24.0595V7.1242C1.47187 7.10173 1.49381 7.08352 1.52089 7.08352H45.4791C45.5062 7.08352 45.5281 7.10173 45.5281 7.1242V24.0595H45.5282Z" fill="white" stroke="white" stroke-width="0.125"/>
</g>
</g>
<g id="Group_3">
<g id="Group_4">
<path id="Vector_2" d="M43.1242 11.073C41.7987 11.073 40.7202 10.1782 40.7202 9.07823C40.7202 8.74102 40.3908 8.46756 39.9843 8.46756H31.3493C30.943 8.46756 30.6134 8.74094 30.6134 9.07823C30.6134 9.41552 30.9428 9.6889 31.3493 9.6889H39.3185C39.6172 10.9736 40.84 11.9883 42.3883 12.2362V18.9474C40.84 19.1953 39.6171 20.21 39.3185 21.4947H31.3493C30.943 21.4947 30.6134 21.7681 30.6134 22.1054C30.6134 22.4427 30.9429 22.716 31.3493 22.716H39.9843C40.3907 22.716 40.7202 22.4427 40.7202 22.1054C40.7202 21.0055 41.7987 20.1106 43.1242 20.1106C43.5306 20.1106 43.8602 19.8372 43.8602 19.4999V11.6837C43.8601 11.3465 43.5306 11.073 43.1242 11.073Z" fill="white" stroke="white" stroke-width="0.125"/>
</g>
</g>
<g id="Group_5">
<g id="Group_6">
<path id="Vector_3" d="M15.6502 21.4948H7.68148C7.38278 20.2102 6.15977 19.1955 4.6117 18.9475V12.2363C6.15977 11.9882 7.38287 10.9736 7.68148 9.68899H15.6502C16.0566 9.68899 16.3861 9.41561 16.3861 9.07832C16.3861 8.74103 16.0567 8.46765 15.6502 8.46765H7.01568C6.60929 8.46765 6.27974 8.74103 6.27974 9.07832C6.27974 10.1782 5.20131 11.0731 3.87577 11.0731C3.46938 11.0731 3.13983 11.3465 3.13983 11.6838V19.5C3.13983 19.8372 3.46929 20.1107 3.87577 20.1107C5.20131 20.1107 6.27974 21.0055 6.27974 22.1055C6.27974 22.4427 6.6092 22.7161 7.01568 22.7161H15.6503C16.0567 22.7161 16.3862 22.4428 16.3862 22.1055C16.3862 21.7682 16.0567 21.4948 15.6502 21.4948Z" fill="white" stroke="white" stroke-width="0.125"/>
</g>
</g>
<g id="Group_7">
<g id="Group_8">
<path id="Vector_4" d="M23.5 8.46765C18.7659 8.46765 14.9144 11.6636 14.9144 15.5919C14.9144 19.5201 18.7659 22.7161 23.5 22.7161C28.2342 22.7161 32.0856 19.5202 32.0856 15.5919C32.0856 11.6635 28.2342 8.46765 23.5 8.46765ZM23.5 21.4948C19.5774 21.4948 16.3862 18.8468 16.3862 15.5919C16.3862 12.337 19.5774 9.68891 23.5 9.68891C27.4226 9.68891 30.6138 12.337 30.6138 15.5919C30.6138 18.8468 27.4226 21.4948 23.5 21.4948Z" fill="white" stroke="white" stroke-width="0.125"/>
</g>
</g>
<g id="Group_9">
<g id="Group_10">
<path id="Vector_5" d="M24.2359 15.1226V12.9918C25.2853 13.1257 25.904 13.5238 25.904 13.7599C25.904 14.0971 26.2334 14.3706 26.6399 14.3706C27.0464 14.3706 27.3758 14.0972 27.3758 13.7599C27.3758 12.7324 26.069 11.9292 24.2359 11.7586V11.6838C24.2359 11.3465 23.9065 11.0731 23.5 11.0731C23.0935 11.0731 22.7641 11.3465 22.7641 11.6838V11.7586C20.931 11.9292 19.6241 12.7325 19.6241 13.7599C19.6241 15.1924 21.3487 15.735 22.7641 16.0611V18.1919C21.7147 18.058 21.096 17.6599 21.096 17.4238C21.096 17.0866 20.7666 16.8131 20.3601 16.8131C19.9536 16.8131 19.6241 17.0865 19.6241 17.4238C19.6241 18.4513 20.931 19.2545 22.7641 19.4251V19.5C22.7641 19.8372 23.0935 20.1107 23.5 20.1107C23.9065 20.1107 24.2359 19.8373 24.2359 19.5V19.4252C26.069 19.2546 27.3758 18.4513 27.3758 17.4238C27.3757 15.9913 25.6512 15.4487 24.2359 15.1226ZM22.7641 14.7841C21.5366 14.4639 21.096 14.178 21.096 13.7599C21.096 13.5238 21.7147 13.1257 22.7641 12.9918V14.7841ZM24.2359 18.1919V16.3996C25.4634 16.7198 25.904 17.0057 25.904 17.4238C25.904 17.6599 25.2852 18.058 24.2359 18.1919Z" fill="white" stroke="white" stroke-width="0.125"/>
</g>
</g>
</g>
</g>
<defs>
<clipPath id="clip0_29_34">
<rect width="47" height="39" fill="white"/>
</clipPath>
</defs>
</svg>
