<!DOCTYPE svg PUBLIC "-//W3C//DTD SVG 1.1//EN" "http://www.w3.org/Graphics/SVG/1.1/DTD/svg11.dtd">
<!-- Uploaded to: SVG Repo, www.svgrepo.com, Transformed by: SVG Repo Mixer Tools -->
<svg fill="#ffffff" height="64px" width="64px" version="1.1" id="Layer_1" xmlns="http://www.w3.org/2000/svg" xmlns:xlink="http://www.w3.org/1999/xlink" viewBox="0 0 512 512" xml:space="preserve" stroke="#ffffff">
<g id="SVGRepo_bgCarrier" stroke-width="0"/>
<g id="SVGRepo_tracerCarrier" stroke-linecap="round" stroke-linejoin="round"/>
<g id="SVGRepo_iconCarrier"> <g> <g> <g> <path d="M167.354,307.849c-2.482,1.673-3.308,4.988-1.831,7.592c39.505,69.659,141.499,69.576,180.959,0 c1.476-2.604,0.651-5.919-1.831-7.592C291.104,271.736,220.953,271.699,167.354,307.849z"/> <path d="M363.258,332.385c-49.298,77.851-165.204,77.858-214.51-0.001c-2.03-3.205-6.538-3.597-9.121-0.819 c-26.411,28.394-42.592,66.424-42.592,108.17v54.942c0,9.567,7.756,17.323,17.323,17.323h283.29 c9.567,0,17.323-7.756,17.323-17.323v-54.944c0-41.744-16.18-79.776-42.591-108.169 C369.796,328.787,365.287,329.18,363.258,332.385z"/> <path d="M133.102,226.749c4.909,1.442,9.121-3.63,6.809-8.194C97.274,134.361,158.092,30.57,256.003,30.57 c97.657,0,158.882,103.541,116.095,187.983c-2.313,4.564,1.9,9.636,6.809,8.194c58.434-17.173,67.725-100.889,9.567-128.842 C380.251,43.115,324.691,0,256.003,0c-69.76,0-124.382,44.006-132.471,97.904C65.326,125.88,74.706,209.587,133.102,226.749z"/> <path d="M256.003,53.666c-58.847,0-106.723,47.871-106.723,106.711c0,59.963,49.019,106.723,106.723,106.723 c57.697,0,106.723-46.748,106.723-106.723C362.725,101.537,314.85,53.666,256.003,53.666z"/> </g> </g> </g> </g>
</svg>